<svg width="73" height="73" viewBox="0 0 73 73" fill="none" xmlns="http://www.w3.org/2000/svg">
<path d="M38.1345 0.927C18.2717 0.0357218 1.44963 15.4148 0.561384 35.2776C-0.326862 55.1373 15.0522 71.9625 34.912 72.8507C54.7717 73.742 71.5969 58.3629 72.4881 38.5001C73.3764 18.6404 57.9973 1.81525 38.1345 0.927ZM63.921 25.9495C63.4996 28.6961 60.9864 30.1785 57.1757 29.5904C55.7388 29.3721 53.5409 28.59 52.0918 28.0261C50.7579 27.5047 49.2907 26.7983 47.6445 26.5437C47.3474 26.4982 47.0625 26.48 46.7927 26.4952H46.7654C44.8919 26.4952 42.9214 26.7862 41.0964 27.9291L41.157 28.0746C41.157 28.0746 42.7273 27.438 44.5432 27.3622C43.8399 27.9624 43.3852 28.8204 43.2427 29.7389C43.1336 30.4544 43.1609 31.188 43.0396 31.9974C42.9244 32.7402 42.7091 33.4708 42.4606 34.071C42.1726 34.7713 41.8027 35.1776 41.6542 36.1477C41.4965 37.1572 41.8694 38.1273 42.5212 38.8427C43.1578 39.543 43.9824 39.8522 45.2526 40.0462C49.0875 40.6344 52.7648 39.6825 55.9995 40.1827C61.3138 41.0012 64.0847 44.6754 63.2904 49.8533C61.9019 58.8662 48.4812 68.646 37.9284 67.021C32.5383 66.1904 29.9342 62.3221 30.6769 57.4959C31.1589 54.3734 32.8111 52.4302 33.9783 50.2383C33.9783 50.2383 33.9843 50.2323 33.9843 50.2292C37.9617 44.06 36.067 40.2918 36.067 40.2918L35.8305 40.4403C35.8305 40.4403 36.5217 43.1202 35.1545 45.5758C34.9453 42.5261 32.6838 39.8977 29.4976 39.4066C29.1126 39.3459 28.7215 39.3217 28.3335 39.3278C25.0988 39.3914 22.0036 41.7803 21.3458 46.0699C20.7728 49.7866 17.7958 53.2517 13.6941 52.6211C8.66171 51.8451 5.46342 45.4849 6.32135 39.9068C7.07924 34.9896 10.6231 32.431 13.873 32.9312C16.277 33.301 17.6139 34.9623 20.0634 35.3382C22.2431 35.6747 23.768 34.356 24.0711 32.4037C24.1863 31.6488 24.0196 30.0451 24.1803 29.0023C24.3894 27.6472 24.8715 26.6983 24.9685 26.0859C25.2201 24.4519 23.7952 22.7997 20.9668 22.3662C20.0361 22.2237 19.5086 22.2328 18.9508 22.1479C16.0375 21.6992 14.2762 19.2801 14.7248 16.3728C15.3736 12.1529 19.8057 9.43355 23.1586 9.95195C25.3413 10.2885 26.8935 11.6587 27.3452 13.3291C27.7878 14.9601 27.1118 16.6881 27.7666 18.9981C28.2092 20.5533 29.2308 20.9141 29.2308 20.9141C29.2308 20.9141 27.7575 22.2207 27.2239 23.1059C27.2058 23.1342 27.2209 23.1665 27.2694 23.2029C27.3695 23.2757 27.3513 23.2757 27.4028 23.2302C29.2824 21.5052 32.2351 20.5897 35.0726 21.0232C36.8916 21.3051 37.6919 21.96 38.6741 22.1115C40.1808 22.345 41.6299 21.3476 41.9967 18.9799C42.1241 18.1553 42.0543 16.9791 41.9816 15.9696C41.9179 15.1117 41.8057 14.472 41.9513 13.5504C42.3878 10.7098 45.0768 9.45477 48.4661 9.9762C56.5118 11.2161 64.8092 20.1926 63.924 25.9525L63.921 25.9495Z" fill="white"/>
</svg>
