<svg width="40" height="41" viewBox="0 0 40 41" fill="none" xmlns="http://www.w3.org/2000/svg">
<path d="M20 24.2218L29.1667 31.7218M20 24.2218L10.8334 31.7218M20 24.2218V12.5552" stroke="#111111" stroke-width="2.5"/>
<path d="M17.319 7.03936C18.509 5.16107 19.104 4.22192 20 4.22192C20.896 4.22192 21.491 5.16107 22.681 7.03936L23.5358 8.38851C24.7098 10.2416 25.2968 11.1681 24.8507 11.8617C24.4043 12.5553 23.2212 12.5553 20.8548 12.5553H19.1452C16.7788 12.5553 15.5957 12.5553 15.1494 11.8617C14.7031 11.1681 15.2902 10.2416 16.4642 8.38851L17.319 7.03936Z" stroke="#111111" stroke-width="2.5"/>
<path d="M35.3874 32.79C36.4265 34.8057 36.946 35.8133 36.5142 36.5968C36.0824 37.3802 34.9894 37.4127 32.8032 37.478L31.233 37.5248C29.0762 37.5892 27.9979 37.6213 27.6175 36.8712C27.237 36.1208 27.8072 35.0863 28.9477 33.0175L29.7715 31.5228C30.9119 29.4538 31.4822 28.4193 32.2927 28.3893C33.1032 28.3593 33.6157 29.3535 34.641 31.3422L35.3874 32.79Z" stroke="#111111" stroke-width="2.5"/>
<path d="M4.61273 32.79C3.57361 34.8057 3.05404 35.8133 3.48584 36.5968C3.91763 37.3802 5.01069 37.4127 7.19679 37.478L8.76706 37.5248C10.9238 37.5892 12.0022 37.6213 12.3826 36.8712C12.763 36.1208 12.1928 35.0863 11.0524 33.0175L10.2286 31.5228C9.08814 29.4538 8.51794 28.4193 7.70743 28.3893C6.89689 28.3593 6.38429 29.3535 5.35913 31.3422L4.61273 32.79Z" stroke="#111111" stroke-width="2.5"/>
</svg>
