<svg width="40" height="41" viewBox="0 0 40 41" fill="none" xmlns="http://www.w3.org/2000/svg">
<path d="M31.6667 37.5557L23.3333 22.5557L15 37.5557" stroke="#111111" stroke-width="2.5" stroke-linecap="round" stroke-linejoin="round"/>
<path d="M26.5327 7.55566L11.7119 16.3155C10.0749 17.2831 9.51397 19.426 10.4591 21.102L12.1705 24.1365C13.1156 25.8123 15.2089 26.3865 16.846 25.419L31.6667 16.6591" stroke="#111111" stroke-width="2.5" stroke-linejoin="round"/>
<path d="M27.0325 8.31503C26.2795 7.01013 26.7264 5.34153 28.0307 4.58815C29.335 3.83475 31.0029 4.28185 31.7559 5.58676L36.3009 13.4626C37.0539 14.7675 36.607 16.4361 35.3027 17.1895C33.9984 17.943 32.3305 17.4958 31.5775 16.1909L27.0325 8.31503Z" stroke="#111111" stroke-width="2.5" stroke-linecap="round" stroke-linejoin="round"/>
<path d="M3.33337 24.6631L4.56366 26.9426M4.56366 26.9426L5.79394 29.2222M4.56366 26.9426L10.8334 23.3889" stroke="#111111" stroke-width="2.5" stroke-linecap="round" stroke-linejoin="round"/>
</svg>
