<?xml version="1.0" encoding="UTF-8" standalone="no"?>
<!-- Created with Inkscape (http://www.inkscape.org/) -->

<svg
   width="176.187mm"
   height="136.39709mm"
   viewBox="0 0 665.90363 515.51659"
   version="1.1"
   id="svg1"
   xml:space="preserve"
   xmlns="http://www.w3.org/2000/svg"
   xmlns:svg="http://www.w3.org/2000/svg"><defs
     id="defs1" /><g
     id="layer1"
     transform="translate(-38.733788,-190.51475)"><g
       id="g14"
       transform="translate(-25.8453,289.6854)"><g
         id="g1"
         transform="translate(225.7338,218.51474)"><path
           style="fill:#249fdd;stroke:none"
           d="m -1.15471,67.51801 c 7.13538,5.76465 17.73926,8.26145 26,12.25849 19.10553,9.24438 38.44205,18.3153 57,28.6026 80.28495,44.5047 170.78479,102.84485 267,86.70373 53.06122,-8.90155 99.87659,-39.90259 128.31562,-85.56482 11.12225,-17.85815 21.39886,-55.69445 0.64428,-71.21063 -14.88482,-11.12799 -32.0863,3.28546 -40.8009,15.21063 -9.68115,13.24781 -13.79437,29.37519 -22.90747,43 -20.03809,29.95862 -50.57361,48.89661 -85.25153,57.11573 -47.46276,11.24926 -99.27829,-1.70594 -144,-18.0625 -61.4953,-22.49134 -121.98492,-53.24372 -186,-68.05323 z"
           id="path2009-8" /><path
           style="fill:#1569b3;stroke:none"
           d="m -23.15471,-6.48199 c 8.94883,3.75507 23.16837,1.97483 33,3.15509 19.68485,2.36313 39.03409,6.85266 58,12.56482 64.99176,19.57425 129.5069,63.95075 200,53.85187 34.87513,-4.99628 68.45997,-26.52618 84.24384,-58.57178 6.22797,-12.64453 11.24646,-38.10705 -2.54474,-48.10647 -9.43512,-6.84101 -18.90161,4.99243 -23.23535,12.10647 -6.46899,10.61914 -10.25378,22.66993 -17.21301,33 -11.71033,17.38245 -31.11878,28.47708 -51.25074,33.11267 -48.0234,11.0578 -100.32342,-11.9887 -146,-24.68829 -45.3117,-12.59814 -88.3421,-16.42438 -135,-16.42438 z"
           id="path1071-0" /><path
           style="fill:#1569b3;stroke:none"
           d="m -161.15471,36.51801 c 5.16664,0.86463 12.02194,-3.65851 17,-5.33258 11.37609,-3.82565 23.15538,-6.2272 35,-8.07715 29.06972,-4.54022 59.48999,-0.46301 88,5.83411 73.38984,16.20987 139.7215,55.30624 211,78.08026 63.31037,20.22815 126.35785,24.58704 184,-13.85956 14.63575,-9.76184 28.46936,-23.45111 38.84101,-37.64508 13.45227,-18.40991 23.48425,-39.90951 29.03247,-62 7.51318,-29.91403 7.23681,-62.36209 -1.59418,-92 -35.52008,-119.20953 -180.24548,-167.38208 -282.2793,-99.33334 -20.36444,13.58151 -38.45156,30.31296 -49.74075,52.33334 -12.07782,23.55866 -17.84772,52.42356 -8.91434,78 5.30729,15.19486 17.48121,27.77234 34.65509,24.53241 12.65458,-2.38733 21.79438,-12.13101 31,-20.24691 22.97358,-20.25409 39.7081,-49.98346 67,-64.97376 49.07569,-26.9552 110.27698,-3.61429 135.67975,44.68826 13.36072,25.40503 14.31867,57.01944 5.57489,84 C 351.08968,68.43482 279.99391,84.52647 217.84529,74.10444 113.8059,56.65751 13.0884,-2.91851 -95.15471,13.7927 c -24.13598,3.72626 -44.14726,12.52249 -66,22.72531 z"
           id="path205-2" /><path
           style="fill:#249fdd;stroke:none"
           d="m 458.84529,5.51801 c 16.71021,-12.78869 26.91132,-37.83487 34.05018,-57 29.74151,-79.84466 1.35925,-168.4064 -61.05018,-223.83331 -5.62555,-4.99615 -11.75055,-9.33209 -18,-13.5 -23.70214,-15.80756 -79.81579,-50.573 -98.4815,-9.66669 -7.49329,16.42163 0.29034,38.03711 14.4815,48.21143 11.4524,8.21075 28.73841,7.5979 42,11.81714 22.48157,7.15265 43.1626,20.55487 60,36.98608 38.14399,37.22373 56.37067,93.49484 47.56482,145.98535 -3.69281,22.01233 -12.08819,40.6402 -20.56482,61 z"
           id="path22-4" /></g></g></g></svg>
